<?xml version="1.0" standalone="no"?><!DOCTYPE svg PUBLIC "-//W3C//DTD SVG 1.1//EN" "http://www.w3.org/Graphics/SVG/1.1/DTD/svg11.dtd"><svg t="1525415245284" class="icon" style="" viewBox="0 0 1024 1024" version="1.1" xmlns="http://www.w3.org/2000/svg" p-id="2051" xmlns:xlink="http://www.w3.org/1999/xlink" width="200" height="200"><defs><style type="text/css"></style></defs><path d="M894.122667 238.677333h-119.893334a268.928 268.928 0 0 0-75.648-159.914666A259.626667 259.626667 0 0 0 512 0C376.533333 0 264.618667 104.576 249.813333 238.677333H129.877333C58.282667 238.677333 0 298.069333 0 371.029333v520.618667C0 964.608 58.282667 1024 129.877333 1024h764.245334C965.717333 1024 1024 964.608 1024 891.648V371.029333c0-72.96-58.282667-132.352-129.877333-132.352zM512 63.018667c101.290667 0 185.429333 76.416 199.808 175.658666H312.192C326.570667 139.434667 410.709333 63.018667 512 63.018667z m382.122667 897.962666H129.877333c-37.546667 0-68.053333-31.146667-68.053333-69.333333v-240.469333a177.408 177.408 0 0 0 117.546667 44.501333h665.258666a177.408 177.408 0 0 0 117.504-44.501333v240.469333c0 38.229333-30.506667 69.333333-68.010666 69.333333z m33.578666-363.264a116.224 116.224 0 0 1-83.072 34.901334H179.370667c-31.317333 0-60.8-12.373333-83.072-34.901334a117.973333 117.973333 0 0 1-34.474667-83.498666V371.029333c0-38.229333 30.549333-69.333333 68.053333-69.333333h764.245334c37.546667 0 68.010667 31.146667 68.010666 69.333333v143.189334c0 31.402667-12.202667 61.056-34.432 83.498666zM512 364.970667c-59.306667 0-107.605333 49.194667-107.605333 109.653333 0 60.501333 48.256 109.653333 107.605333 109.653333 59.306667 0 107.605333-49.152 107.605333-109.653333 0-60.458667-48.256-109.653333-107.605333-109.653333z m0 156.288c-25.216 0-45.781333-20.906667-45.781333-46.634667s20.565333-46.634667 45.781333-46.634667 45.781333 20.906667 45.781333 46.634667-20.565333 46.634667-45.781333 46.634667z" p-id="2052"></path></svg>