<?xml version="1.0" standalone="no"?><!DOCTYPE svg PUBLIC "-//W3C//DTD SVG 1.1//EN" "http://www.w3.org/Graphics/SVG/1.1/DTD/svg11.dtd"><svg t="1527644722839" class="icon" style="" viewBox="0 0 1024 1024" version="1.1" xmlns="http://www.w3.org/2000/svg" p-id="5843" xmlns:xlink="http://www.w3.org/1999/xlink" width="200" height="200"><defs><style type="text/css"></style></defs><path d="M342.845 764.581H295.73c-8.173 0-14.841 6.663-14.841 14.841v47.104c0 8.178 6.668 14.851 14.841 14.851h47.114c8.173 0 14.841-6.673 14.841-14.851v-47.104c0.001-8.178-6.667-14.841-14.84-14.841m0-355.375H295.73c-8.173 0-14.841 6.678-14.841 14.84v47.115c0 8.173 6.668 14.851 14.841 14.851h47.114c8.173 0 14.841-6.678 14.841-14.851v-47.115c0.001-8.163-6.667-14.84-14.84-14.84m0 118.529H295.73c-8.173 0-14.841 6.678-14.841 14.846v46.901c0 8.162 6.668 14.83 14.841 14.83h47.114c8.173 0 14.841-6.668 14.841-14.83v-47.109c0.001-8.179-6.667-14.638-14.84-14.638m0 118.317H295.73c-8.173 0-14.841 6.662-14.841 14.841v47.119c0 8.168 6.668 14.83 14.841 14.83h47.114c8.173 0 14.841-6.662 14.841-14.83v-47.119c0.001-8.179-6.667-14.841-14.84-14.841m0-355.366H295.73c-8.173 0-14.841 6.663-14.841 14.83v47.11c0 8.188 6.668 14.856 14.841 14.856h47.114c8.173 0 14.841-6.667 14.841-14.856v-47.11c0.001-8.167-6.667-14.83-14.84-14.83M906.006 918.6h-793.12c-8.188 0-14.856-6.673-14.856-14.851v-48.173c0-8.178 6.667-14.851 14.856-14.851h44.526V239.971c0-16.789 9.897-31.842 25.383-38.515L445.446 49.375c12.907-5.594 27.748-4.303 39.583 3.438 11.83 7.746 18.716 20.872 18.716 34.848v752.851h47.537V155.363c0-15.049 7.955-28.821 20.862-36.13 12.918-7.532 29.04-7.323 41.958 0.208L840.827 251.52c12.908 7.532 20.659 21.304 20.659 36.145v553.274h44.745c8.157 0 14.84 6.662 14.84 14.851v47.959c-0.215 8.178-6.887 14.851-15.065 14.851M728.532 532.308h-47.104c-8.179 0-14.841 6.667-14.841 14.845v46.892c0 8.179 6.662 14.841 14.841 14.841h47.104c8.178 0 14.851-6.662 14.851-14.841v-47.11c0-8.168-6.673-14.627-14.851-14.627m0-237.06h-47.104c-8.179 0-14.841 6.667-14.841 14.84v47.11c0 8.178 6.662 14.846 14.841 14.846h47.104c8.178 0 14.851-6.667 14.851-14.846v-47.11c0-8.172-6.673-14.84-14.851-14.84m0 355.371h-47.104c-8.179 0-14.841 6.667-14.841 14.845v47.11c0 8.178 6.662 14.84 14.841 14.84h47.104c8.178 0 14.851-6.662 14.851-14.84v-47.11c0-8.178-6.673-14.845-14.851-14.845m0 118.534h-47.104c-8.179 0-14.841 6.667-14.841 14.841v47.109c0 8.178 6.662 14.851 14.841 14.851h47.104c8.178 0 14.851-6.673 14.851-14.851v-47.109c0-8.174-6.673-14.841-14.851-14.841m0-355.375h-47.104c-8.179 0-14.841 6.667-14.841 14.845v47.11c0 8.173 6.662 14.84 14.841 14.84h47.104c8.178 0 14.851-6.667 14.851-14.84v-47.11c0-8.178-6.673-14.845-14.851-14.845" p-id="5844"></path></svg>