<?xml version="1.0" standalone="no"?><!DOCTYPE svg PUBLIC "-//W3C//DTD SVG 1.1//EN" "http://www.w3.org/Graphics/SVG/1.1/DTD/svg11.dtd"><svg t="1528704678473" class="icon" style="" viewBox="0 0 1024 1024" version="1.1" xmlns="http://www.w3.org/2000/svg" p-id="16494" xmlns:xlink="http://www.w3.org/1999/xlink" width="200" height="200"><defs><style type="text/css"></style></defs><path d="M832 0C938.048 0 1024 85.952 1024 192L1024 832C1024 938.048 938.048 1024 832 1024L192 1024C85.952 1024 0 938.048 0 832L0 719.424 56.256 775.68C76.8 796.224 101.376 810.88 128 820.288L128 832C128 867.392 156.672 896 192 896L832 896C867.392 896 896 867.392 896 832L896 192C896 156.672 867.392 128 832 128L192 128C156.672 128 128 156.672 128 192L128 203.648C101.44 213.056 76.864 227.648 56.256 248.192L0 304.448 0 192C0 85.952 85.952 0 192 0L832 0ZM216.512 324.8C240.384 334.656 256 358.08 256 383.936L256 448 448 448C483.392 448 512 476.672 512 512 512 547.392 483.392 576 448 576L256 576 256 639.936C256 665.792 240.384 689.216 216.512 699.072 192.576 708.928 165.056 703.424 146.752 685.184L18.752 557.184C6.272 544.704 0 528.32 0 511.936 0 495.552 6.272 479.168 18.752 466.688L146.752 338.688C165.056 320.384 192.576 314.944 216.512 324.8Z" p-id="16495"></path></svg>