<?xml version="1.0" standalone="no"?><!DOCTYPE svg PUBLIC "-//W3C//DTD SVG 1.1//EN" "http://www.w3.org/Graphics/SVG/1.1/DTD/svg11.dtd"><svg t="1528703540911" class="icon" style="" viewBox="0 0 1024 1024" version="1.1" xmlns="http://www.w3.org/2000/svg" p-id="3894" xmlns:xlink="http://www.w3.org/1999/xlink" width="200" height="200"><defs><style type="text/css"></style></defs><path d="M225.984 381.952 353.152 381.952 353.152 478.272 225.984 478.272 225.984 381.952Z" p-id="3895"></path><path d="M225.984 702.656 353.152 702.656 353.152 798.848 225.984 798.848 225.984 702.656Z" p-id="3896"></path><path d="M448.512 542.4 575.68 542.4 575.68 638.656 448.512 638.656 448.512 542.4Z" p-id="3897"></path><path d="M225.984 542.4 353.152 542.4 353.152 638.656 225.984 638.656 225.984 542.4Z" p-id="3898"></path><path d="M448.512 702.656 575.68 702.656 575.68 798.848 448.512 798.848 448.512 702.656Z" p-id="3899"></path><path d="M670.848 542.4 798.016 542.4 798.016 638.656 670.848 638.656 670.848 542.4Z" p-id="3900"></path><path d="M670.848 381.952 798.016 381.952 798.016 478.272 670.848 478.272 670.848 381.952Z" p-id="3901"></path><path d="M670.848 702.656 798.016 702.656 798.016 798.848 670.848 798.848 670.848 702.656Z" p-id="3902"></path><path d="M448.512 381.952 575.68 381.952 575.68 478.272 448.512 478.272 448.512 381.952Z" p-id="3903"></path><path d="M917.504 82.88l-152.256 0L765.248 25.664C765.248 11.52 753.728 0 739.84 0c-14.016 0-25.408 11.52-25.408 25.664l0 57.28L537.472 82.944 537.472 25.664C537.472 11.52 526.144 0 512.128 0S486.656 11.52 486.656 25.664l0 57.28L307.392 82.944 307.392 25.664C307.392 11.52 295.936 0 281.92 0S256.512 11.52 256.512 25.664l0 57.28L106.56 82.944C47.808 82.88 0 131.072 0 190.4l0 726.208C0 975.808 47.68 1024 106.56 1024l810.944 0C976.192 1024 1024 975.936 1024 916.608L1024 190.4C1024 131.072 976.32 82.88 917.504 82.88L917.504 82.88zM973.184 916.608c0 30.784-25.024 56.064-55.68 56.064L106.56 972.672c-30.656 0-55.68-25.28-55.68-56.064L50.88 190.4c0-30.912 25.024-56.128 55.68-56.128l149.952 0 0 57.28c0 14.144 11.456 25.664 25.408 25.664s25.408-11.52 25.408-25.664L307.328 134.272l179.328 0 0 57.28c0 14.144 11.456 25.664 25.408 25.664s25.344-11.52 25.344-25.664L537.408 134.272l176.96 0 0 57.28c0 14.144 11.456 25.664 25.408 25.664s25.408-11.52 25.408-25.664L765.184 134.272l152.32 0c30.656 0 55.68 25.216 55.68 56.128l0 726.208L973.184 916.608 973.184 916.608z" p-id="3904"></path></svg>