<?xml version="1.0" standalone="no"?><!DOCTYPE svg PUBLIC "-//W3C//DTD SVG 1.1//EN" "http://www.w3.org/Graphics/SVG/1.1/DTD/svg11.dtd"><svg t="1528703898602" class="icon" style="" viewBox="0 0 1024 1024" version="1.1" xmlns="http://www.w3.org/2000/svg" p-id="6715" xmlns:xlink="http://www.w3.org/1999/xlink" width="200" height="200"><defs><style type="text/css"></style></defs><path d="M498.95619 97.889524c-108.909714 6.41219-198.582857 95.012571-205.921523 203.727238C284.818286 429.494857 385.487238 536.380952 511.780571 536.380952 633.490286 536.380952 731.428571 437.711238 731.428571 317.147429c0.902095-126.049524-105.252571-226.54781-232.472381-219.257905z m48.88381 488.594286A520.167619 520.167619 0 0 0 512 585.142857c-138.435048 0-414.47619 68.266667-414.47619 204.8v102.4c0 18.773333 15.579429 34.133333 34.620952 34.133333h416.768A267.093333 267.093333 0 0 1 487.619048 755.809524c0-64.219429 22.576762-123.172571 60.220952-169.350095z" p-id="6716"></path><path d="M868.205714 609.52381l37.644191 43.54438c-81.529905 13.750857-182.369524 20.967619-269.482667 23.259429-0.975238-13.116952-7.192381-34.06019-11.776-45.202286 86.113524-2.608762 180.736-10.48381 243.614476-21.601523z m-16.384 150.625523l-39.936-17.359238c14.726095-20.967619 32.426667-53.711238 42.22781-79.579428l49.103238 18.675809c-16.676571 28.818286-36.010667 58.61181-51.395048 78.262857z m-135.875047-21.284571l-43.544381 18.651428c-3.608381-16.359619-15.725714-41.252571-28.501334-59.904l40.277334-17.042285c13.409524 17.67619 26.843429 41.252571 31.768381 58.270476z m200.387047 71.046095h-87.430095c26.843429 23.893333 62.537143 44.860952 97.572571 58.270476-11.459048 10.166857-27.501714 30.134857-35.693714 43.227429-35.352381-16.700952-69.729524-42.569143-97.889524-72.679619v80.871619h-50.761142v-78.921143c-27.818667 29.817905-61.561905 55.02781-96.914286 72.045714-8.192-12.775619-24.234667-32.743619-35.693714-43.227428 35.693714-13.409524 71.046095-35.035429 97.255619-59.587048h-85.479619v-46.494476h120.832v-26.526476h6.558476c-2.950095-15.067429-10.825143-36.010667-19.334096-52.394667l43.227429-15.043048c10.48381 17.017905 20.309333 39.277714 22.918095 55.003429l-34.377143 12.434286h31.768381v26.526476h123.440762v46.494476z" p-id="6717"></path></svg>