<?xml version="1.0" standalone="no"?><!DOCTYPE svg PUBLIC "-//W3C//DTD SVG 1.1//EN" "http://www.w3.org/Graphics/SVG/1.1/DTD/svg11.dtd"><svg t="1528703825501" class="icon" style="" viewBox="0 0 1024 1024" version="1.1" xmlns="http://www.w3.org/2000/svg" p-id="5290" xmlns:xlink="http://www.w3.org/1999/xlink" width="200" height="200"><defs><style type="text/css"></style></defs><path d="M654.88118838 62.00023379a262.28564648 262.28564648 0 0 0-251.64928476 189.58436631 236.45448369 236.45448369 0 0 0-8.99999825 47.45453291 219.1557876 219.1557876 0 0 0-1.28571328 24.89609795 263.45447666 263.45447666 0 0 0 58.44154307 165.03891767 265.79213877 265.79213877 0 0 0 50.37661054 47.45453291 259.48045195 259.48045195 0 0 0 98.99997364 43.83115752 256.20772588 256.20772588 0 0 0 53.88310283 5.61038818h4.20779179a253.16876513 253.16876513 0 0 0 47.45453292-5.02597265A261.93499717 261.93499717 0 0 0 654.88118838 62.00023379z m51.6623247 485.06480947a219.74020224 219.74020224 0 0 1-47.4545329 5.84415352h-4.2077918a229.67526533 229.67526533 0 0 1-46.05193565-4.67532334 228.27266807 228.27266807 0 0 1-112.441529-59.37660791 227.45448633 227.45448633 0 0 1-70.12985185-165.03891767 219.03890449 219.03890449 0 0 1 1.40259638-24.89609796 227.10383701 227.10383701 0 0 1 10.28571153-47.4545329l1.28571415-3.74025851a226.51942148 226.51942148 0 0 1 16.94804766-37.05193828A229.0908498 229.0908498 0 1 1 706.54351308 547.06504326z" p-id="5291"></path><path d="M659.08898018 552.90919677v361.40250411H154.15404628V299.039133h60.42855587v17.99999562a23.37661758 23.37661758 0 0 0 47.45453291 0v-17.99999561h64.63634678v17.99999561a23.37661758 23.37661758 0 0 0 47.4545329 0v-17.99999561h53.0649211a227.10383701 227.10383701 0 0 1 10.28571153-47.45453291h-63.35063263v-17.99999561a23.37661758 23.37661758 0 1 0-47.4545329 0v17.99999561h-64.63634678v-17.99999561a23.37661758 23.37661758 0 1 0-47.45453291 0v17.99999561H130.07613008a23.37661758 23.37661758 0 0 0-23.37661758 23.37661758V938.62338242a23.37661758 23.37661758 0 0 0 23.37661758 23.37661758h552.74011611a23.37661758 23.37661758 0 0 0 23.37661758-23.37661758V547.06504326a219.74020224 219.74020224 0 0 1-47.10388359 5.84415351zM438.76436153 233.58460449v14.25973711a226.51942148 226.51942148 0 0 1 16.94804765-37.05193828 23.37661758 23.37661758 0 0 0-16.94804765 22.79220117z" p-id="5292"></path><path d="M496.27084062 488.97414863h-271.16876074a23.37661758 23.37661758 0 0 1 1e-8-47.4545329h233.18175761a228.9739667 228.9739667 0 0 0 37.98700312 47.45453291zM611.9850957 560.15594844a23.37661758 23.37661758 0 0 1-23.37661669 23.37661758h-363.50639912a23.37661758 23.37661758 0 0 1 0-47.57141602h344.22068935a225.58435664 225.58435664 0 0 0 39.38960039 11.68830791 23.37661758 23.37661758 0 0 1 3.27272607 12.50649053zM588.25782969 678.90916426H225.10207989a23.37661758 23.37661758 0 0 1-1e-8-47.45453291H588.25782969a23.37661758 23.37661758 0 0 1 0 47.4545329zM402.41372187 773.93511406H225.10207989a23.37661758 23.37661758 0 0 1-1e-8-47.57141689H402.41372187a23.37661758 23.37661758 0 0 1 0 47.57141689zM818.51750967 165.79241474L698.71234589 335.50665664h94.44153429v37.63635381h-109.98698468V424.33780185h109.98698468v37.98700313h-109.98698468v75.27270762h-56.57141337v-74.8051752h-113.96100937V424.33780185h113.96100937v-51.1947914h-113.96100937V335.50665664h97.24672792L491.24486797 165.79241474h63.81816504Q638.16690693 292.25991464 656.05001943 326.15600908h1.16883106a516.85700888 516.85700888 0 0 1 33.19479668-56.22076406l67.79218975-104.14283028z" p-id="5293"></path></svg>