<?xml version="1.0" standalone="no"?><!DOCTYPE svg PUBLIC "-//W3C//DTD SVG 1.1//EN" "http://www.w3.org/Graphics/SVG/1.1/DTD/svg11.dtd"><svg t="1528704039774" class="icon" style="" viewBox="0 0 1024 1024" version="1.1" xmlns="http://www.w3.org/2000/svg" p-id="9883" xmlns:xlink="http://www.w3.org/1999/xlink" width="200" height="200"><defs><style type="text/css"></style></defs><path d="M227.555556 0h568.888888a227.555556 227.555556 0 0 1 227.555556 227.555556v568.888888a227.555556 227.555556 0 0 1-227.555556 227.555556H227.555556a227.555556 227.555556 0 0 1-227.555556-227.555556V227.555556a227.555556 227.555556 0 0 1 227.555556-227.555556z m56.888888 170.666667a56.888889 56.888889 0 0 0-56.888888 56.888889h199.111111a28.444444 28.444444 0 1 0 0-56.888889H284.444444zM227.555556 284.444444a56.888889 56.888889 0 0 0 56.888888 56.888889h170.666667a56.888889 56.888889 0 0 0-56.888889-56.888889H227.555556z m28.444444 113.777778a28.444444 28.444444 0 1 0 0 56.888889H398.222222a56.888889 56.888889 0 0 0 56.888889-56.888889H256zM398.222222 341.333333v56.888889h56.888889V341.333333H398.222222zM227.555556 227.555556v56.888888h56.888888V227.555556H227.555556z m398.222222-56.888889a56.888889 56.888889 0 0 0-56.888889 56.888889h227.555555a56.888889 56.888889 0 0 0-56.888888-56.888889h-113.777778z m-56.888889 56.888889v199.111111a28.444444 28.444444 0 1 0 56.888889 0V227.555556h-56.888889z m170.666667 0v199.111111a28.444444 28.444444 0 1 0 56.888888 0V227.555556h-56.888888z m-113.777778 56.888888v56.888889h113.777778V284.444444h-113.777778z m-341.333334 512v56.888889h142.222223a28.444444 28.444444 0 1 0 0-56.888889H284.444444z m-28.444444-227.555555a28.444444 28.444444 0 0 0-28.444444 28.444444V796.444444a56.888889 56.888889 0 0 0 56.888888 56.888889v-256a28.444444 28.444444 0 0 0-28.444444-28.444444z m369.777778 227.555555v56.888889h142.222222a28.444444 28.444444 0 1 0 0-56.888889H625.777778z m0-227.555555v56.888889h142.222222a28.444444 28.444444 0 1 0 0-56.888889H625.777778z m0 113.777778v56.888889h142.222222a28.444444 28.444444 0 1 0 0-56.888889H625.777778z m0-113.777778a56.888889 56.888889 0 0 0-56.888889 56.888889v170.666666a56.888889 56.888889 0 0 0 56.888889 56.888889v-284.444444z" p-id="9884"></path></svg>