<?xml version="1.0" standalone="no"?><!DOCTYPE svg PUBLIC "-//W3C//DTD SVG 1.1//EN" "http://www.w3.org/Graphics/SVG/1.1/DTD/svg11.dtd"><svg t="1528704742457" class="icon" style="" viewBox="0 0 1024 1024" version="1.1" xmlns="http://www.w3.org/2000/svg" p-id="18078" xmlns:xlink="http://www.w3.org/1999/xlink" width="200" height="200"><defs><style type="text/css"></style></defs><path d="M450.986667 110.336c-188.714667 0-341.674667 154.368-341.674667 344.789333 0 190.421333 152.96 344.789333 341.674667 344.789334 188.672 0 341.674667-154.368 341.674666-344.746667 0-190.464-153.002667-344.832-341.674666-344.832z m462.805333 897.28l-189.610667-190.933333a445.781333 445.781333 0 0 1-273.194666 93.610666C201.898667 910.293333 0 706.517333 0 455.168 0 203.776 201.898667 0 450.986667 0s450.986667 203.776 450.986666 455.125333c0 99.114667-31.701333 190.592-85.034666 265.301334l191.36 192.768a42.666667 42.666667 0 0 1 0.042666 60.074666l-33.962666 34.304a42.666667 42.666667 0 0 1-60.586667 0z" p-id="18079"></path></svg>