<?xml version="1.0" standalone="no"?><!DOCTYPE svg PUBLIC "-//W3C//DTD SVG 1.1//EN" "http://www.w3.org/Graphics/SVG/1.1/DTD/svg11.dtd"><svg t="1528768971695" class="icon" style="" viewBox="0 0 1024 1024" version="1.1" xmlns="http://www.w3.org/2000/svg" p-id="2566" xmlns:xlink="http://www.w3.org/1999/xlink" width="200" height="200"><defs><style type="text/css"></style></defs><path d="M368.281249 572.365856l-70.691015 0c-27.085892 0-32.697703 5.607718-32.697703 32.69361l0 71.675436c0 27.083845 5.611811 32.69361 32.697703 32.69361l70.691015 0c27.085892 0 32.694633-5.609765 32.694633-32.69361l0-71.675436C400.975882 577.974597 395.367141 572.365856 368.281249 572.365856z" p-id="2567"></path><path d="M368.281249 396.975267l-70.691015 0c-27.085892 0-32.697703 5.609765-32.697703 32.69668l0 71.672366c0 27.085892 5.611811 32.695656 32.697703 32.695656l70.691015 0c27.085892 0 32.694633-5.608741 32.694633-32.695656l0-71.672366C400.975882 402.586055 395.367141 396.975267 368.281249 396.975267z" p-id="2568"></path><path d="M368.281249 747.988736l-70.691015 0c-27.085892 0-32.697703 5.609765-32.697703 32.695656l0 71.669296c0 27.092032 5.611811 32.697703 32.697703 32.697703l70.691015 0c27.085892 0 32.694633-5.611811 32.694633-32.697703l0-71.669296C400.975882 753.599524 395.367141 747.988736 368.281249 747.988736z" p-id="2569"></path><path d="M553.315476 747.988736l-70.686922 0c-27.084868 0-32.695656 5.609765-32.695656 32.695656l0 71.669296c0 27.092032 5.609765 32.697703 32.695656 32.697703l70.686922 0c27.092032 0 32.69975-5.611811 32.69975-32.697703l0-71.669296C586.015226 753.599524 580.406484 747.988736 553.315476 747.988736z" p-id="2570"></path><path d="M553.315476 572.365856l-70.686922 0c-27.084868 0-32.695656 5.607718-32.695656 32.69361l0 71.675436c0 27.083845 5.609765 32.69361 32.695656 32.69361l70.686922 0c27.092032 0 32.69975-5.609765 32.69975-32.69361l0-71.675436C586.015226 577.974597 580.406484 572.365856 553.315476 572.365856z" p-id="2571"></path><path d="M950.571129 371.311771 534.769075 78.640058c-3.218298-3.239787-6.897084-5.739724-10.770298-7.444553-12.291954-7.05365-29.065989-2.601244-39.072901 10.543124L73.407382 372.289028c-12.766768 9.012258-14.725376 28.382421-4.373611 43.265386 10.357905 14.883989 29.093619 19.642362 41.86141 10.635221l28.688389-20.25737 0 479.361649c0 18.048051 14.630209 32.67212 32.674167 32.67212s32.67519-14.628162 32.67519-32.67212L204.932927 359.792413 512.06191 142.948713l313.558415 220.709751 0 521.635451c0 18.048051 14.630209 32.67212 32.682353 32.67212 18.042935 0 32.673144-14.628162 32.673144-32.67212L890.975822 409.656077l22.022573 15.505136c12.793374 9.008164 31.573089 4.249791 41.947368-10.615779C965.324134 399.673725 963.364503 380.320958 950.571129 371.311771z" p-id="2572"></path><path d="M738.591203 747.988736l-70.923306 0c-27.092032 0-32.701796 5.609765-32.701796 32.695656l0 71.669296c0 27.092032 5.609765 32.697703 32.701796 32.697703l70.923306 0c27.086915 0 32.69668-5.611811 32.69668-32.697703l0-71.669296C771.287883 753.599524 765.677095 747.988736 738.591203 747.988736z" p-id="2573"></path></svg>